<svg xmlns="http://www.w3.org/2000/svg" width="900" height="390" viewBox="0 0 900 390">
  <rect width="100%" height="100%" fill="#ffffff"/>
  <text x="24" y="34" font-family="Arial" font-size="20" font-weight="700" fill="#111827">Monthly Net Sales Trend</text>
  
    <polyline points="60.0,302.6 93.0,330.0 126.1,261.8 159.1,235.0 192.2,222.7 225.2,241.7 258.3,273.3 291.3,269.9 324.3,319.7 357.4,279.2 390.4,263.3 423.5,273.2 456.5,158.9 489.6,202.2 522.6,95.5 555.7,117.2 588.7,85.9 621.7,100.4 654.8,70.2 687.8,199.1 720.9,218.3 753.9,210.8 787.0,190.2 820.0,70.0" fill="none" stroke="#1D4ED8" stroke-width="2.5"/>
    <circle cx="60.0" cy="302.6" r="3" fill="#1D4ED8"/>
<circle cx="93.0" cy="330.0" r="3" fill="#1D4ED8"/>
<circle cx="126.1" cy="261.8" r="3" fill="#1D4ED8"/>
<circle cx="159.1" cy="235.0" r="3" fill="#1D4ED8"/>
<circle cx="192.2" cy="222.7" r="3" fill="#1D4ED8"/>
<circle cx="225.2" cy="241.7" r="3" fill="#1D4ED8"/>
<circle cx="258.3" cy="273.3" r="3" fill="#1D4ED8"/>
<circle cx="291.3" cy="269.9" r="3" fill="#1D4ED8"/>
<circle cx="324.3" cy="319.7" r="3" fill="#1D4ED8"/>
<circle cx="357.4" cy="279.2" r="3" fill="#1D4ED8"/>
<circle cx="390.4" cy="263.3" r="3" fill="#1D4ED8"/>
<circle cx="423.5" cy="273.2" r="3" fill="#1D4ED8"/>
<circle cx="456.5" cy="158.9" r="3" fill="#1D4ED8"/>
<circle cx="489.6" cy="202.2" r="3" fill="#1D4ED8"/>
<circle cx="522.6" cy="95.5" r="3" fill="#1D4ED8"/>
<circle cx="555.7" cy="117.2" r="3" fill="#1D4ED8"/>
<circle cx="588.7" cy="85.9" r="3" fill="#1D4ED8"/>
<circle cx="621.7" cy="100.4" r="3" fill="#1D4ED8"/>
<circle cx="654.8" cy="70.2" r="3" fill="#1D4ED8"/>
<circle cx="687.8" cy="199.1" r="3" fill="#1D4ED8"/>
<circle cx="720.9" cy="218.3" r="3" fill="#1D4ED8"/>
<circle cx="753.9" cy="210.8" r="3" fill="#1D4ED8"/>
<circle cx="787.0" cy="190.2" r="3" fill="#1D4ED8"/>
<circle cx="820.0" cy="70.0" r="3" fill="#1D4ED8"/>
    <text x="60" y="62" font-family="Arial" font-size="12" fill="#1D4ED8">Net sales</text>
    <text x="60" y="348" font-family="Arial" font-size="11" fill="#6B7280">2024-01</text>
    <text x="764" y="348" font-family="Arial" font-size="11" fill="#6B7280">2025-12</text>
    
</svg>
