<svg xmlns="http://www.w3.org/2000/svg" width="900" height="430" viewBox="0 0 900 430">
  <rect width="100%" height="100%" fill="#ffffff"/>
  <text x="24" y="34" font-family="Arial" font-size="20" font-weight="700" fill="#111827">Top Drug Categories By Net Sales</text>
  <text x="28" y="84.2" font-family="Arial" font-size="11" fill="#374151">Hepatology</text>
<rect x="208" y="70.0" width="560.0" height="19.0" fill="#B45309" rx="3"/>
<text x="774.0" y="84.2" font-family="Arial" font-size="10" fill="#6B7280">3.3M</text>
<text x="28" y="110.2" font-family="Arial" font-size="11" fill="#374151">Diagnostic Aids</text>
<rect x="208" y="96.0" width="509.1" height="19.0" fill="#B45309" rx="3"/>
<text x="723.1" y="110.2" font-family="Arial" font-size="10" fill="#6B7280">3.0M</text>
<text x="28" y="136.2" font-family="Arial" font-size="11" fill="#374151">Hypertension</text>
<rect x="208" y="122.0" width="364.8" height="19.0" fill="#B45309" rx="3"/>
<text x="578.8" y="136.2" font-family="Arial" font-size="10" fill="#6B7280">2.2M</text>
<text x="28" y="162.2" font-family="Arial" font-size="11" fill="#374151">ENT</text>
<rect x="208" y="148.0" width="309.1" height="19.0" fill="#B45309" rx="3"/>
<text x="523.1" y="162.2" font-family="Arial" font-size="10" fill="#6B7280">1.8M</text>
<text x="28" y="188.2" font-family="Arial" font-size="11" fill="#374151">Antidiabetics</text>
<rect x="208" y="174.0" width="253.6" height="19.0" fill="#B45309" rx="3"/>
<text x="467.6" y="188.2" font-family="Arial" font-size="10" fill="#6B7280">1.5M</text>
<text x="28" y="214.2" font-family="Arial" font-size="11" fill="#374151">Antihistamines</text>
<rect x="208" y="200.0" width="225.4" height="19.0" fill="#B45309" rx="3"/>
<text x="439.4" y="214.2" font-family="Arial" font-size="10" fill="#6B7280">1.3M</text>
<text x="28" y="240.2" font-family="Arial" font-size="11" fill="#374151">Rheumatology</text>
<rect x="208" y="226.0" width="174.8" height="19.0" fill="#B45309" rx="3"/>
<text x="388.8" y="240.2" font-family="Arial" font-size="10" fill="#6B7280">1.0M</text>
<text x="28" y="266.2" font-family="Arial" font-size="11" fill="#374151">Neurology</text>
<rect x="208" y="252.0" width="174.3" height="19.0" fill="#B45309" rx="3"/>
<text x="388.3" y="266.2" font-family="Arial" font-size="10" fill="#6B7280">1.0M</text>
<text x="28" y="292.2" font-family="Arial" font-size="11" fill="#374151">Analgesics</text>
<rect x="208" y="278.0" width="173.8" height="19.0" fill="#B45309" rx="3"/>
<text x="387.8" y="292.2" font-family="Arial" font-size="10" fill="#6B7280">1.0M</text>
<text x="28" y="318.2" font-family="Arial" font-size="11" fill="#374151">Antibiotics</text>
<rect x="208" y="304.0" width="157.3" height="19.0" fill="#B45309" rx="3"/>
<text x="371.3" y="318.2" font-family="Arial" font-size="10" fill="#6B7280">934.3K</text>
<text x="28" y="344.2" font-family="Arial" font-size="11" fill="#374151">Allergy</text>
<rect x="208" y="330.0" width="150.8" height="19.0" fill="#B45309" rx="3"/>
<text x="364.8" y="344.2" font-family="Arial" font-size="10" fill="#6B7280">896.0K</text>
<text x="28" y="370.2" font-family="Arial" font-size="11" fill="#374151">Antifungals</text>
<rect x="208" y="356.0" width="145.4" height="19.0" fill="#B45309" rx="3"/>
<text x="359.4" y="370.2" font-family="Arial" font-size="10" fill="#6B7280">863.5K</text>
</svg>
